<mxfile host="65bd71144e">
    <diagram id="o1xs1OYl29nDGwnPuu_C" name="Page-1">
        <mxGraphModel dx="467" dy="323" grid="1" gridSize="10" guides="1" tooltips="1" connect="1" arrows="1" fold="1" page="1" pageScale="1" pageWidth="850" pageHeight="1100" math="0" shadow="0">
            <root>
                <mxCell id="0"/>
                <mxCell id="1" parent="0"/>
                <mxCell id="4" style="edgeStyle=none;html=1;entryX=0;entryY=0.5;entryDx=0;entryDy=0;" parent="1" source="2" target="3" edge="1">
                    <mxGeometry relative="1" as="geometry"/>
                </mxCell>
                <mxCell id="2" value="cli" style="rounded=0;whiteSpace=wrap;html=1;" parent="1" vertex="1">
                    <mxGeometry x="230" y="140" width="120" height="60" as="geometry"/>
                </mxCell>
                <mxCell id="6" value="" style="edgeStyle=none;html=1;entryX=0.877;entryY=0.991;entryDx=0;entryDy=0;entryPerimeter=0;" parent="1" source="3" target="5" edge="1">
                    <mxGeometry relative="1" as="geometry"/>
                </mxCell>
                <mxCell id="16" style="edgeStyle=none;html=1;entryX=0;entryY=0.5;entryDx=0;entryDy=0;" parent="1" source="3" target="15" edge="1">
                    <mxGeometry relative="1" as="geometry"/>
                </mxCell>
                <mxCell id="3" value="bluestone Backend" style="rounded=0;whiteSpace=wrap;html=1;" parent="1" vertex="1">
                    <mxGeometry x="490" y="220" width="120" height="60" as="geometry"/>
                </mxCell>
                <mxCell id="13" value="send workflow info to backend&lt;br&gt;&lt;div style=&quot;color: rgb(212 , 212 , 212) ; background-color: rgb(30 , 30 , 30) ; font-family: &amp;#34;consolas&amp;#34; , &amp;#34;courier new&amp;#34; , monospace ; font-size: 14px ; line-height: 19px&quot;&gt;&lt;span style=&quot;color: #9cdcfe&quot;&gt;window&lt;/span&gt;.&lt;span style=&quot;color: #dcdcaa&quot;&gt;logEvent&lt;/span&gt;&lt;/div&gt;" style="edgeStyle=none;html=1;entryX=0;entryY=0;entryDx=0;entryDy=0;" parent="1" source="5" target="3" edge="1">
                    <mxGeometry x="-0.4412" y="-9" relative="1" as="geometry">
                        <Array as="points">
                            <mxPoint x="570" y="150"/>
                        </Array>
                        <mxPoint as="offset"/>
                    </mxGeometry>
                </mxCell>
                <mxCell id="5" value="Chromium Browser&lt;br&gt;eventRecorder.js" style="rounded=0;whiteSpace=wrap;html=1;" parent="1" vertex="1">
                    <mxGeometry x="610" y="30" width="120" height="60" as="geometry"/>
                </mxCell>
                <mxCell id="8" style="edgeStyle=none;html=1;entryX=0.5;entryY=0;entryDx=0;entryDy=0;" parent="1" source="7" target="2" edge="1">
                    <mxGeometry relative="1" as="geometry"/>
                </mxCell>
                <mxCell id="9" value="start bluestone via command line" style="edgeLabel;html=1;align=center;verticalAlign=middle;resizable=0;points=[];" parent="8" vertex="1" connectable="0">
                    <mxGeometry x="-0.3933" y="1" relative="1" as="geometry">
                        <mxPoint as="offset"/>
                    </mxGeometry>
                </mxCell>
                <mxCell id="7" value="Actor" style="shape=umlActor;verticalLabelPosition=bottom;verticalAlign=top;html=1;outlineConnect=0;" parent="1" vertex="1">
                    <mxGeometry x="200" y="10" width="30" height="60" as="geometry"/>
                </mxCell>
                <mxCell id="12" value="record workflow via browser" style="edgeStyle=none;html=1;entryX=1;entryY=0.25;entryDx=0;entryDy=0;" parent="1" source="11" target="5" edge="1">
                    <mxGeometry relative="1" as="geometry"/>
                </mxCell>
                <mxCell id="17" style="edgeStyle=none;html=1;entryX=1;entryY=0.5;entryDx=0;entryDy=0;" parent="1" source="11" target="15" edge="1">
                    <mxGeometry relative="1" as="geometry"/>
                </mxCell>
                <mxCell id="11" value="Actor" style="shape=umlActor;verticalLabelPosition=bottom;verticalAlign=top;html=1;outlineConnect=0;" parent="1" vertex="1">
                    <mxGeometry x="890" y="200" width="30" height="60" as="geometry"/>
                </mxCell>
                <mxCell id="15" value="Bluestone Agent UI Layer" style="rounded=0;whiteSpace=wrap;html=1;" parent="1" vertex="1">
                    <mxGeometry x="660" y="320" width="120" height="60" as="geometry"/>
                </mxCell>
                <mxCell id="20" style="edgeStyle=none;html=1;dashed=1;" edge="1" parent="1" source="19" target="3">
                    <mxGeometry relative="1" as="geometry"/>
                </mxCell>
                <mxCell id="19" value="is Debuggable in Bluestone Backend" style="text;html=1;strokeColor=none;fillColor=none;align=center;verticalAlign=middle;whiteSpace=wrap;rounded=0;" vertex="1" parent="1">
                    <mxGeometry x="510" y="350" width="60" height="30" as="geometry"/>
                </mxCell>
            </root>
        </mxGraphModel>
    </diagram>
    <diagram id="G1CH6hSP-h7X4e1__YUt" name="Page-2">
        <mxGraphModel dx="786" dy="1423" grid="1" gridSize="10" guides="1" tooltips="1" connect="1" arrows="1" fold="1" page="1" pageScale="1" pageWidth="850" pageHeight="1100" math="0" shadow="0">
            <root>
                <mxCell id="rxl9d2PZWKKs-u3C2QSj-0"/>
                <mxCell id="rxl9d2PZWKKs-u3C2QSj-1" parent="rxl9d2PZWKKs-u3C2QSj-0"/>
                <mxCell id="rxl9d2PZWKKs-u3C2QSj-2" value="Chromium Browser" style="rounded=0;whiteSpace=wrap;html=1;" parent="rxl9d2PZWKKs-u3C2QSj-1" vertex="1">
                    <mxGeometry x="180" y="30" width="120" height="60" as="geometry"/>
                </mxCell>
                <mxCell id="rxl9d2PZWKKs-u3C2QSj-6" value="do any ui operation" style="edgeStyle=none;html=1;" parent="rxl9d2PZWKKs-u3C2QSj-1" source="rxl9d2PZWKKs-u3C2QSj-4" target="rxl9d2PZWKKs-u3C2QSj-5" edge="1">
                    <mxGeometry relative="1" as="geometry"/>
                </mxCell>
                <mxCell id="rxl9d2PZWKKs-u3C2QSj-4" value="Actor" style="shape=umlActor;verticalLabelPosition=bottom;verticalAlign=top;html=1;outlineConnect=0;" parent="rxl9d2PZWKKs-u3C2QSj-1" vertex="1">
                    <mxGeometry x="100" y="140" width="30" height="60" as="geometry"/>
                </mxCell>
                <mxCell id="rxl9d2PZWKKs-u3C2QSj-8" value="trigger" style="edgeStyle=none;html=1;" parent="rxl9d2PZWKKs-u3C2QSj-1" source="rxl9d2PZWKKs-u3C2QSj-5" target="rxl9d2PZWKKs-u3C2QSj-7" edge="1">
                    <mxGeometry relative="1" as="geometry"/>
                </mxCell>
                <mxCell id="rxl9d2PZWKKs-u3C2QSj-5" value="browser" style="whiteSpace=wrap;html=1;verticalAlign=top;" parent="rxl9d2PZWKKs-u3C2QSj-1" vertex="1">
                    <mxGeometry x="270" y="140" width="120" height="60" as="geometry"/>
                </mxCell>
                <mxCell id="rxl9d2PZWKKs-u3C2QSj-11" value="pass on end to next level" style="edgeStyle=none;html=1;exitX=0.644;exitY=1.005;exitDx=0;exitDy=0;exitPerimeter=0;" parent="rxl9d2PZWKKs-u3C2QSj-1" source="rxl9d2PZWKKs-u3C2QSj-16" target="rxl9d2PZWKKs-u3C2QSj-10" edge="1">
                    <mxGeometry relative="1" as="geometry"/>
                </mxCell>
                <mxCell id="rxl9d2PZWKKs-u3C2QSj-18" style="edgeStyle=none;html=1;entryX=0;entryY=0.5;entryDx=0;entryDy=0;" parent="rxl9d2PZWKKs-u3C2QSj-1" source="rxl9d2PZWKKs-u3C2QSj-7" target="rxl9d2PZWKKs-u3C2QSj-16" edge="1">
                    <mxGeometry relative="1" as="geometry"/>
                </mxCell>
                <mxCell id="rxl9d2PZWKKs-u3C2QSj-7" value="event" style="whiteSpace=wrap;html=1;verticalAlign=top;" parent="rxl9d2PZWKKs-u3C2QSj-1" vertex="1">
                    <mxGeometry x="490" y="140" width="120" height="60" as="geometry"/>
                </mxCell>
                <mxCell id="rxl9d2PZWKKs-u3C2QSj-13" value="update" style="edgeStyle=none;html=1;" parent="rxl9d2PZWKKs-u3C2QSj-1" source="rxl9d2PZWKKs-u3C2QSj-10" target="rxl9d2PZWKKs-u3C2QSj-12" edge="1">
                    <mxGeometry relative="1" as="geometry"/>
                </mxCell>
                <mxCell id="rxl9d2PZWKKs-u3C2QSj-10" value="event handler" style="whiteSpace=wrap;html=1;verticalAlign=top;" parent="rxl9d2PZWKKs-u3C2QSj-1" vertex="1">
                    <mxGeometry x="510" y="300" width="120" height="60" as="geometry"/>
                </mxCell>
                <mxCell id="rxl9d2PZWKKs-u3C2QSj-15" value="user see things change in web page" style="edgeStyle=none;html=1;" parent="rxl9d2PZWKKs-u3C2QSj-1" source="rxl9d2PZWKKs-u3C2QSj-12" target="rxl9d2PZWKKs-u3C2QSj-4" edge="1">
                    <mxGeometry relative="1" as="geometry">
                        <mxPoint x="250" y="347.5" as="targetPoint"/>
                    </mxGeometry>
                </mxCell>
                <mxCell id="rxl9d2PZWKKs-u3C2QSj-12" value="browser&amp;nbsp;" style="whiteSpace=wrap;html=1;verticalAlign=top;" parent="rxl9d2PZWKKs-u3C2QSj-1" vertex="1">
                    <mxGeometry x="270" y="300" width="120" height="60" as="geometry"/>
                </mxCell>
                <mxCell id="rxl9d2PZWKKs-u3C2QSj-20" value="window.logEvent(EventDetail)" style="edgeStyle=none;html=1;" parent="rxl9d2PZWKKs-u3C2QSj-1" source="rxl9d2PZWKKs-u3C2QSj-16" target="rxl9d2PZWKKs-u3C2QSj-19" edge="1">
                    <mxGeometry relative="1" as="geometry"/>
                </mxCell>
                <mxCell id="rxl9d2PZWKKs-u3C2QSj-16" value="bluestone event handler" style="whiteSpace=wrap;html=1;verticalAlign=top;" parent="rxl9d2PZWKKs-u3C2QSj-1" vertex="1">
                    <mxGeometry x="670" y="140" width="120" height="60" as="geometry"/>
                </mxCell>
                <mxCell id="rxl9d2PZWKKs-u3C2QSj-19" value="Bluestone Backend" style="whiteSpace=wrap;html=1;verticalAlign=top;" parent="rxl9d2PZWKKs-u3C2QSj-1" vertex="1">
                    <mxGeometry x="570" y="-60" width="120" height="60" as="geometry"/>
                </mxCell>
            </root>
        </mxGraphModel>
    </diagram>
</mxfile>